<svg width="217" height="356" viewBox="0 0 217 356" fill="none" xmlns="http://www.w3.org/2000/svg">
<g clip-path="url(#clip0_32_177)">
<g filter="url(#filter0_i_32_177)">
<path d="M213.37 58.7201C212.53 79.6201 212.86 97.5301 212.86 97.5301L200.432 98.4157C196.55 98.6923 194.609 98.8306 193.384 97.8462C192.16 96.8618 191.86 94.8096 191.261 90.7052C189.551 79.0058 184.364 57.4397 168.75 42.5501C168.56 42.3501 168.37 42.0001 168.17 41.9501C140.8 34.8001 74.2399 69.6201 69.6199 97.5301C68.2299 105.92 80.1599 115.55 91.8199 123.3C58.4299 101.47 23.8899 75.5101 29.9999 29.1001C75.2399 -2.2999 123.41 0.0401032 123.41 0.0401032C123.41 0.0401032 144.94 0.220103 168.43 3.5701C191.33 6.8401 216.21 13.2901 216.21 13.2901C216.21 13.2901 214.21 37.5001 213.37 58.7201Z" fill="#00C1FF"/>
<path d="M213.37 58.7201C212.53 79.6201 212.86 97.5301 212.86 97.5301L200.432 98.4157C196.55 98.6923 194.609 98.8306 193.384 97.8462C192.16 96.8618 191.86 94.8096 191.261 90.7052C189.551 79.0058 184.364 57.4397 168.75 42.5501C168.56 42.3501 168.37 42.0001 168.17 41.9501C140.8 34.8001 74.2399 69.6201 69.6199 97.5301C68.2299 105.92 80.1599 115.55 91.8199 123.3C58.4299 101.47 23.8899 75.5101 29.9999 29.1001C75.2399 -2.2999 123.41 0.0401032 123.41 0.0401032C123.41 0.0401032 144.94 0.220103 168.43 3.5701C191.33 6.8401 216.21 13.2901 216.21 13.2901C216.21 13.2901 214.21 37.5001 213.37 58.7201Z" fill="url(#paint0_linear_32_177)" fill-opacity="0.3"/>
<path d="M213.37 58.7201C212.53 79.6201 212.86 97.5301 212.86 97.5301L200.432 98.4157C196.55 98.6923 194.609 98.8306 193.384 97.8462C192.16 96.8618 191.86 94.8096 191.261 90.7052C189.551 79.0058 184.364 57.4397 168.75 42.5501C168.56 42.3501 168.37 42.0001 168.17 41.9501C140.8 34.8001 74.2399 69.6201 69.6199 97.5301C68.2299 105.92 80.1599 115.55 91.8199 123.3C58.4299 101.47 23.8899 75.5101 29.9999 29.1001C75.2399 -2.2999 123.41 0.0401032 123.41 0.0401032C123.41 0.0401032 144.94 0.220103 168.43 3.5701C191.33 6.8401 216.21 13.2901 216.21 13.2901C216.21 13.2901 214.21 37.5001 213.37 58.7201Z" fill="black" fill-opacity="0.18"/>
<path d="M213.37 58.7201C212.53 79.6201 212.86 97.5301 212.86 97.5301L200.432 98.4157C196.55 98.6923 194.609 98.8306 193.384 97.8462C192.16 96.8618 191.86 94.8096 191.261 90.7052C189.551 79.0058 184.364 57.4397 168.75 42.5501C168.56 42.3501 168.37 42.0001 168.17 41.9501C140.8 34.8001 74.2399 69.6201 69.6199 97.5301C68.2299 105.92 80.1599 115.55 91.8199 123.3C58.4299 101.47 23.8899 75.5101 29.9999 29.1001C75.2399 -2.2999 123.41 0.0401032 123.41 0.0401032C123.41 0.0401032 144.94 0.220103 168.43 3.5701C191.33 6.8401 216.21 13.2901 216.21 13.2901C216.21 13.2901 214.21 37.5001 213.37 58.7201Z" fill="#1F28CF" fill-opacity="0.1"/>
</g>
<path d="M123.41 0.0401032C123.406 0.540086 123.406 0.540086 123.406 0.540087L123.407 0.540093L123.409 0.540118L123.421 0.540224L123.467 0.540693L123.651 0.5429C123.813 0.545026 124.055 0.548582 124.372 0.554299C125.005 0.565733 125.936 0.585808 127.126 0.620362C129.508 0.68947 132.929 0.816483 137.083 1.04808C145.393 1.51132 156.633 2.39274 168.359 4.06509C179.791 5.69751 191.722 8.1245 200.799 10.1444C205.336 11.1542 209.159 12.0618 211.846 12.717C213.19 13.0445 214.25 13.3089 214.974 13.4914C215.263 13.5643 215.499 13.6241 215.677 13.6697C215.663 13.8408 215.645 14.0626 215.624 14.3319C215.568 15.0358 215.486 16.0649 215.386 17.366C215.185 19.9683 214.909 23.659 214.606 28.0129C214.001 36.7201 213.291 48.083 212.87 58.7C212.45 69.1579 212.322 78.8669 212.3 85.961C212.289 89.5083 212.304 92.4022 212.321 94.4095C212.33 95.4132 212.34 96.1953 212.347 96.7267C212.349 96.854 212.351 96.9669 212.352 97.065L200.396 97.917C198.442 98.0562 197.022 98.1565 195.935 98.1044C194.856 98.0526 194.19 97.8522 193.698 97.4566C193.211 97.0647 192.865 96.4314 192.572 95.3182C192.278 94.2029 192.057 92.6972 191.755 90.6329C190.042 78.9043 184.836 57.2053 169.105 42.1977C169.063 42.1523 169.03 42.1086 168.986 42.0507C168.951 42.005 168.91 41.9504 168.852 41.879C168.798 41.812 168.729 41.7318 168.648 41.6612C168.572 41.5939 168.452 41.5061 168.294 41.4658C161.328 39.6466 151.936 40.5072 141.746 43.2099C131.54 45.9168 120.473 50.4878 110.124 56.154C99.7752 61.8199 90.1278 68.5905 82.7709 75.7063C75.4263 82.8102 70.3078 90.3127 69.1266 97.4484C68.3892 101.9 71.1881 106.565 75.4662 111.002C76.0952 111.655 76.759 112.305 77.4522 112.952C49.54 93.0573 25.4111 68.5611 30.467 29.3847C52.9576 13.8223 76.1613 6.60827 93.7626 3.28643C102.586 1.62119 109.998 0.934697 115.202 0.66443C117.804 0.529303 119.854 0.498243 121.251 0.500884C121.949 0.502204 122.485 0.511949 122.845 0.521321C123.025 0.526006 123.161 0.530599 123.252 0.533998C123.297 0.535697 123.331 0.537098 123.353 0.538064L123.378 0.539167L123.384 0.539442L123.385 0.539504C123.386 0.539514 123.386 0.539514 123.41 0.0401032ZM123.41 0.0401032L123.386 0.539514L123.396 0.540002L123.406 0.540086L123.41 0.0401032Z" stroke="url(#paint1_linear_32_177)" style="mix-blend-mode:soft-light"/>
<path d="M216.81 202.38V245.44C207.08 243.34 197.02 241.22 186.81 238.98C180.28 237.55 173.7 236.08 167.09 234.53C154.31 231.55 141.47 228.3 128.9 224.61C128.26 224.43 127.61 224.24 126.97 224.04C125.78 223.7 124.59 223.34 123.41 222.97C115.8 220.65 108.31 218.15 101.01 215.44C98.45 214.5 95.92 213.52 93.41 212.52C93.4 212.52 93.4 212.51 93.39 212.51C75.06 205.18 58.14 196.38 43.89 185.44C38.92 181.61 34.27 177.53 30 173.16C13.01 155.79 1.99 133.84 0.25 105.53C0.08 102.92 0 100.25 0 97.5301V88.8601C1.4 73.9801 8.03 43.7901 30 29.1001C23.89 75.5101 58.43 101.47 91.82 123.3C92.35 123.65 92.88 124 93.41 124.34C133.1 149.92 208.17 168.75 216.81 202.38Z" fill="url(#paint2_linear_32_177)" style="mix-blend-mode:screen"/>
<path d="M216.81 202.38V245.44C207.08 243.34 197.02 241.22 186.81 238.98C180.28 237.55 173.7 236.08 167.09 234.53C154.31 231.55 141.47 228.3 128.9 224.61C128.26 224.43 127.61 224.24 126.97 224.04C125.78 223.7 124.59 223.34 123.41 222.97C115.8 220.65 108.31 218.15 101.01 215.44C98.45 214.5 95.92 213.52 93.41 212.52C93.4 212.52 93.4 212.51 93.39 212.51C75.06 205.18 58.14 196.38 43.89 185.44C38.92 181.61 34.27 177.53 30 173.16C13.01 155.79 1.99 133.84 0.25 105.53C0.08 102.92 0 100.25 0 97.5301V88.8601C1.4 73.9801 8.03 43.7901 30 29.1001C23.89 75.5101 58.43 101.47 91.82 123.3C92.35 123.65 92.88 124 93.41 124.34C133.1 149.92 208.17 168.75 216.81 202.38Z" fill="#1F28CF" fill-opacity="0.1"/>
<path d="M216.81 202.38V245.44C207.08 243.34 197.02 241.22 186.81 238.98C180.28 237.55 173.7 236.08 167.09 234.53C154.31 231.55 141.47 228.3 128.9 224.61C128.26 224.43 127.61 224.24 126.97 224.04C125.78 223.7 124.59 223.34 123.41 222.97C115.8 220.65 108.31 218.15 101.01 215.44C98.45 214.5 95.92 213.52 93.41 212.52C93.4 212.52 93.4 212.51 93.39 212.51C75.06 205.18 58.14 196.38 43.89 185.44C38.92 181.61 34.27 177.53 30 173.16C13.01 155.79 1.99 133.84 0.25 105.53C0.08 102.92 0 100.25 0 97.5301V88.8601C1.4 73.9801 8.03 43.7901 30 29.1001C23.89 75.5101 58.43 101.47 91.82 123.3C92.35 123.65 92.88 124 93.41 124.34C133.1 149.92 208.17 168.75 216.81 202.38Z" fill="black" fill-opacity="0.2"/>
<path d="M167.09 234.53C173.7 236.08 180.28 237.55 186.81 238.98C193.29 240.402 199.71 241.775 206.023 243.126C208.131 243.577 210.227 244.025 212.31 244.472M167.09 234.53L212.31 244.472M167.09 234.53C154.31 231.55 141.47 228.3 128.9 224.61M167.09 234.53L128.9 224.61M212.31 244.472C213.817 244.795 215.318 245.118 216.81 245.44V240.837C215.316 240.515 213.816 240.192 212.31 239.87V244.472ZM94.982 208.3C76.9312 201.076 60.438 192.47 46.6348 181.874C41.8141 178.159 37.3254 174.218 33.2186 170.015L33.217 170.014C16.9409 153.373 6.41163 132.427 4.74152 105.254L4.74102 105.246L4.74048 105.238C4.57744 102.734 4.5 100.162 4.5 97.5301V89.0741C5.18771 81.952 7.12313 71.2409 11.4539 60.606C14.5938 52.8956 18.9188 45.4029 24.79 39.3203C24.6017 82.1 58.7315 107.043 89.3507 127.062C89.8714 127.406 90.4204 127.769 90.9739 128.124C101.18 134.701 113.559 140.784 126.334 146.682C130.825 148.755 135.352 150.8 139.866 152.839C148.317 156.656 156.726 160.454 164.78 164.385C177.109 170.403 188.206 176.547 196.704 183.149C205.039 189.625 210.382 196.168 212.31 202.976L94.982 208.3ZM94.982 208.3C94.9589 208.292 94.9356 208.283 94.9122 208.275L95.0602 208.334M94.982 208.3C95.0083 208.311 95.0346 208.321 95.0609 208.332L95.0602 208.334M95.0602 208.334L95.0598 208.334M95.0602 208.334L95.0755 208.34C95.1188 208.357 95.1621 208.374 95.2054 208.391C95.2976 208.432 95.386 208.474 95.4704 208.518C95.5558 208.563 95.6365 208.608 95.7124 208.654C95.8643 208.745 95.9956 208.836 96.1061 208.919C96.2159 209.002 96.3067 209.078 96.3764 209.14C96.4114 209.171 96.4421 209.199 96.4677 209.223C96.4934 209.247 96.5151 209.267 96.5318 209.284C96.5485 209.3 96.5618 209.313 96.5699 209.321L96.5709 209.322C96.5631 209.314 96.55 209.301 96.5337 209.286C96.5173 209.27 96.4959 209.249 96.4706 209.226C96.4452 209.202 96.4149 209.174 96.3802 209.144C96.3112 209.083 96.2211 209.007 96.1119 208.925C96.0022 208.842 95.8717 208.751 95.7205 208.661C95.645 208.615 95.5647 208.57 95.4797 208.526C95.3947 208.482 95.3057 208.439 95.2126 208.398C95.1675 208.378 95.1217 208.359 95.0752 208.34C95.0701 208.338 95.065 208.336 95.0598 208.334M95.0598 208.334C95.0153 208.317 94.97 208.3 94.9241 208.283C94.825 208.248 94.7239 208.215 94.621 208.187C94.5181 208.158 94.4146 208.133 94.3107 208.111C94.2067 208.09 94.1034 208.073 94.0009 208.059C93.7954 208.032 93.5977 208.02 93.41 208.02H93.6905M95.0598 208.334L93.41 212.46L93.39 212.51V208.01C93.4876 208.01 93.5879 208.013 93.6905 208.02M93.6905 208.02C93.7865 208.027 93.8846 208.036 93.9845 208.049C94.0875 208.063 94.1914 208.081 94.2958 208.102C94.4003 208.123 94.5043 208.148 94.6076 208.177C94.7107 208.206 94.812 208.239 94.9114 208.274L94.2734 208.02H93.6905ZM128.9 224.61C128.26 224.43 127.61 224.24 126.97 224.04M128.9 224.61L126.97 224.04M126.97 224.04C125.78 223.7 124.59 223.34 123.41 222.97M126.97 224.04L123.41 222.97M123.41 222.97C115.8 220.65 108.31 218.15 101.01 215.44M123.41 222.97L101.01 215.44M101.01 215.44C98.45 214.5 95.92 213.52 93.41 212.52L101.01 215.44Z" stroke="url(#paint3_radial_32_177)" stroke-opacity="0.5" stroke-width="9" style="mix-blend-mode:soft-light"/>
<g filter="url(#filter1_i_32_177)">
<path d="M216.81 245.44V292.1C216.81 295.04 215.24 297.75 212.7 299.22L186.81 314.17L164.84 326.85L123.41 350.76L118.93 353.35C115.16 355.53 110.53 355.61 106.68 353.56L93.42 346.51L56.44 326.85L30.01 312.8L3.77001 298.85C1.46001 297.62 0.0100098 295.21 0.0100098 292.59V230.781C0.0100098 227.56 0.0100098 225.95 0.951238 224.833C1.89247 223.716 3.47962 223.443 6.65393 222.897L30.01 218.88L50.01 215.44V270.47C50.01 273.45 51.87 276.12 54.67 277.14L93.42 291.34L103.29 294.96C106.6 296.18 110.24 296.18 113.56 294.96L123.42 291.36L162.7 277.02C165.34 276.06 167.1 273.55 167.1 270.74V234.51C173.71 236.06 180.29 237.53 186.82 238.96C197.03 241.2 207.09 243.32 216.82 245.42L216.81 245.44Z" fill="url(#paint4_radial_32_177)"/>
<path d="M216.81 245.44V292.1C216.81 295.04 215.24 297.75 212.7 299.22L186.81 314.17L164.84 326.85L123.41 350.76L118.93 353.35C115.16 355.53 110.53 355.61 106.68 353.56L93.42 346.51L56.44 326.85L30.01 312.8L3.77001 298.85C1.46001 297.62 0.0100098 295.21 0.0100098 292.59V230.781C0.0100098 227.56 0.0100098 225.95 0.951238 224.833C1.89247 223.716 3.47962 223.443 6.65393 222.897L30.01 218.88L50.01 215.44V270.47C50.01 273.45 51.87 276.12 54.67 277.14L93.42 291.34L103.29 294.96C106.6 296.18 110.24 296.18 113.56 294.96L123.42 291.36L162.7 277.02C165.34 276.06 167.1 273.55 167.1 270.74V234.51C173.71 236.06 180.29 237.53 186.82 238.96C197.03 241.2 207.09 243.32 216.82 245.42L216.81 245.44Z" fill="url(#paint5_linear_32_177)" fill-opacity="0.5"/>
<path d="M216.81 245.44V292.1C216.81 295.04 215.24 297.75 212.7 299.22L186.81 314.17L164.84 326.85L123.41 350.76L118.93 353.35C115.16 355.53 110.53 355.61 106.68 353.56L93.42 346.51L56.44 326.85L30.01 312.8L3.77001 298.85C1.46001 297.62 0.0100098 295.21 0.0100098 292.59V230.781C0.0100098 227.56 0.0100098 225.95 0.951238 224.833C1.89247 223.716 3.47962 223.443 6.65393 222.897L30.01 218.88L50.01 215.44V270.47C50.01 273.45 51.87 276.12 54.67 277.14L93.42 291.34L103.29 294.96C106.6 296.18 110.24 296.18 113.56 294.96L123.42 291.36L162.7 277.02C165.34 276.06 167.1 273.55 167.1 270.74V234.51C173.71 236.06 180.29 237.53 186.82 238.96C197.03 241.2 207.09 243.32 216.82 245.42L216.81 245.44Z" fill="black" fill-opacity="0.18"/>
</g>
<path d="M205.931 243.595C209.426 244.343 212.889 245.084 216.31 245.821V292.1C216.31 294.861 214.836 297.406 212.45 298.787L186.56 313.737L164.59 326.417L123.16 350.327L123.16 350.327L118.68 352.917C115.059 355.011 110.613 355.088 106.915 353.119L106.915 353.118L93.6547 346.068L56.6747 326.408L30.2447 312.358L4.00501 298.409C1.85787 297.265 0.51001 295.025 0.51001 292.59V230.781C0.51001 229.158 0.510914 227.987 0.623831 227.08C0.735028 226.187 0.948829 225.612 1.33358 225.155C1.71834 224.699 2.24895 224.39 3.11017 224.13C3.98472 223.865 5.13892 223.665 6.73868 223.39L30.0948 219.373L49.51 216.033V270.47C49.51 273.659 51.5004 276.517 54.4989 277.61L93.2478 291.809L93.248 291.809L103.117 295.429C106.539 296.69 110.301 296.69 113.732 295.43C113.732 295.429 113.732 295.429 113.732 295.429L123.591 291.83L162.871 277.49C165.708 276.458 167.6 273.76 167.6 270.74V235.141C174.007 236.639 180.384 238.062 186.713 239.448C193.194 240.87 199.617 242.244 205.931 243.595Z" stroke="url(#paint6_linear_32_177)" stroke-opacity="0.3" style="mix-blend-mode:soft-light"/>
</g>
<defs>
<filter id="filter0_i_32_177" x="29.2922" y="0.000732422" width="186.918" height="127.299" filterUnits="userSpaceOnUse" color-interpolation-filters="sRGB">
<feFlood flood-opacity="0" result="BackgroundImageFix"/>
<feBlend mode="normal" in="SourceGraphic" in2="BackgroundImageFix" result="shape"/>
<feColorMatrix in="SourceAlpha" type="matrix" values="0 0 0 0 0 0 0 0 0 0 0 0 0 0 0 0 0 0 127 0" result="hardAlpha"/>
<feOffset dy="4"/>
<feGaussianBlur stdDeviation="12"/>
<feComposite in2="hardAlpha" operator="arithmetic" k2="-1" k3="1"/>
<feColorMatrix type="matrix" values="0 0 0 0 0 0 0 0 0 0 0 0 0 0 0 0 0 0 0.15 0"/>
<feBlend mode="multiply" in2="shape" result="effect1_innerShadow_32_177"/>
</filter>
<filter id="filter1_i_32_177" x="0.0100098" y="215.44" width="216.81" height="143.603" filterUnits="userSpaceOnUse" color-interpolation-filters="sRGB">
<feFlood flood-opacity="0" result="BackgroundImageFix"/>
<feBlend mode="normal" in="SourceGraphic" in2="BackgroundImageFix" result="shape"/>
<feColorMatrix in="SourceAlpha" type="matrix" values="0 0 0 0 0 0 0 0 0 0 0 0 0 0 0 0 0 0 127 0" result="hardAlpha"/>
<feOffset dy="4"/>
<feGaussianBlur stdDeviation="37"/>
<feComposite in2="hardAlpha" operator="arithmetic" k2="-1" k3="1"/>
<feColorMatrix type="matrix" values="0 0 0 0 0 0 0 0 0 0 0 0 0 0 0 0 0 0 0.15 0"/>
<feBlend mode="multiply" in2="shape" result="effect1_innerShadow_32_177"/>
</filter>
<linearGradient id="paint0_linear_32_177" x1="43.5" y1="79.5" x2="216" y2="14" gradientUnits="userSpaceOnUse">
<stop/>
<stop offset="0.226431" stop-opacity="0"/>
</linearGradient>
<linearGradient id="paint1_linear_32_177" x1="216" y1="15" x2="171.5" y2="44.5" gradientUnits="userSpaceOnUse">
<stop stop-color="white" stop-opacity="0.1"/>
<stop offset="1" stop-color="white" stop-opacity="0"/>
</linearGradient>
<linearGradient id="paint2_linear_32_177" x1="29" y1="29" x2="288.5" y2="342.5" gradientUnits="userSpaceOnUse">
<stop stop-color="#00C1FF"/>
<stop offset="1" stop-color="#00FFB2"/>
</linearGradient>
<radialGradient id="paint3_radial_32_177" cx="0" cy="0" r="1" gradientUnits="userSpaceOnUse" gradientTransform="translate(108.405 137.27) rotate(141.672) scale(80.1879 126.232)">
<stop stop-color="white" stop-opacity="0.4"/>
<stop offset="1" stop-color="white" stop-opacity="0"/>
</radialGradient>
<radialGradient id="paint4_radial_32_177" cx="0" cy="0" r="1" gradientUnits="userSpaceOnUse" gradientTransform="translate(108 215) rotate(90) scale(193 232.613)">
<stop offset="0.333813" stop-color="#00C1FF"/>
<stop offset="0.920482" stop-color="#00FFB2"/>
</radialGradient>
<linearGradient id="paint5_linear_32_177" x1="217" y1="243.5" x2="139.5" y2="285" gradientUnits="userSpaceOnUse">
<stop/>
<stop offset="0.546995" stop-opacity="0"/>
</linearGradient>
<linearGradient id="paint6_linear_32_177" x1="1.69419e-06" y1="297" x2="217" y2="215" gradientUnits="userSpaceOnUse">
<stop stop-color="white"/>
<stop offset="1" stop-color="white" stop-opacity="0.3"/>
</linearGradient>
<clipPath id="clip0_32_177">
<rect width="216.81" height="355.04" fill="white"/>
</clipPath>
</defs>
</svg>
